<mxfile host="app.diagrams.net" modified="2023-07-23T22:03:04.091Z" agent="Mozilla/5.0 (Windows NT 10.0; Win64; x64) AppleWebKit/537.36 (KHTML, like Gecko) Chrome/115.0.0.0 Safari/537.36" etag="urViTg39bXlPxqPoVdc-" version="21.6.3" type="device">
  <diagram name="Page-1" id="T8nDYk2SB8TncW_tM5j0">
    <mxGraphModel dx="5486" dy="2789" grid="1" gridSize="10" guides="1" tooltips="1" connect="1" arrows="1" fold="1" page="1" pageScale="1" pageWidth="827" pageHeight="1169" math="0" shadow="0">
      <root>
        <mxCell id="0" />
        <mxCell id="1" parent="0" />
        <mxCell id="hdaKIBXGjX3yEsH8_jmL-2" value="TicketController" style="swimlane;fontStyle=1;align=center;verticalAlign=top;childLayout=stackLayout;horizontal=1;startSize=26;horizontalStack=0;resizeParent=1;resizeParentMax=0;resizeLast=0;collapsible=1;marginBottom=0;whiteSpace=wrap;html=1;" vertex="1" parent="1">
          <mxGeometry x="-700" y="580" width="410" height="456" as="geometry" />
        </mxCell>
        <mxCell id="hdaKIBXGjX3yEsH8_jmL-3" value="-service: TicketService" style="text;strokeColor=none;fillColor=none;align=left;verticalAlign=top;spacingLeft=4;spacingRight=4;overflow=hidden;rotatable=0;points=[[0,0.5],[1,0.5]];portConstraint=eastwest;whiteSpace=wrap;html=1;" vertex="1" parent="hdaKIBXGjX3yEsH8_jmL-2">
          <mxGeometry y="26" width="410" height="26" as="geometry" />
        </mxCell>
        <mxCell id="hdaKIBXGjX3yEsH8_jmL-98" value="-input_validator: TicketInputValidationService" style="text;strokeColor=none;fillColor=none;align=left;verticalAlign=top;spacingLeft=4;spacingRight=4;overflow=hidden;rotatable=0;points=[[0,0.5],[1,0.5]];portConstraint=eastwest;whiteSpace=wrap;html=1;" vertex="1" parent="hdaKIBXGjX3yEsH8_jmL-2">
          <mxGeometry y="52" width="410" height="26" as="geometry" />
        </mxCell>
        <mxCell id="hdaKIBXGjX3yEsH8_jmL-99" value="-output_manager: OutputManager" style="text;strokeColor=none;fillColor=none;align=left;verticalAlign=top;spacingLeft=4;spacingRight=4;overflow=hidden;rotatable=0;points=[[0,0.5],[1,0.5]];portConstraint=eastwest;whiteSpace=wrap;html=1;" vertex="1" parent="hdaKIBXGjX3yEsH8_jmL-2">
          <mxGeometry y="78" width="410" height="26" as="geometry" />
        </mxCell>
        <mxCell id="hdaKIBXGjX3yEsH8_jmL-100" value="-commands: dict[string, method()]" style="text;strokeColor=none;fillColor=none;align=left;verticalAlign=top;spacingLeft=4;spacingRight=4;overflow=hidden;rotatable=0;points=[[0,0.5],[1,0.5]];portConstraint=eastwest;whiteSpace=wrap;html=1;" vertex="1" parent="hdaKIBXGjX3yEsH8_jmL-2">
          <mxGeometry y="104" width="410" height="26" as="geometry" />
        </mxCell>
        <mxCell id="hdaKIBXGjX3yEsH8_jmL-4" value="" style="line;strokeWidth=1;fillColor=none;align=left;verticalAlign=middle;spacingTop=-1;spacingLeft=3;spacingRight=3;rotatable=0;labelPosition=right;points=[];portConstraint=eastwest;strokeColor=inherit;" vertex="1" parent="hdaKIBXGjX3yEsH8_jmL-2">
          <mxGeometry y="130" width="410" height="8" as="geometry" />
        </mxCell>
        <mxCell id="hdaKIBXGjX3yEsH8_jmL-5" value="+__init__(TicketService, TicketInputValidationService, OutputManager)" style="text;strokeColor=none;fillColor=none;align=left;verticalAlign=top;spacingLeft=4;spacingRight=4;overflow=hidden;rotatable=0;points=[[0,0.5],[1,0.5]];portConstraint=eastwest;whiteSpace=wrap;html=1;" vertex="1" parent="hdaKIBXGjX3yEsH8_jmL-2">
          <mxGeometry y="138" width="410" height="26" as="geometry" />
        </mxCell>
        <mxCell id="hdaKIBXGjX3yEsH8_jmL-102" value="+start(): void" style="text;strokeColor=none;fillColor=none;align=left;verticalAlign=top;spacingLeft=4;spacingRight=4;overflow=hidden;rotatable=0;points=[[0,0.5],[1,0.5]];portConstraint=eastwest;whiteSpace=wrap;html=1;" vertex="1" parent="hdaKIBXGjX3yEsH8_jmL-2">
          <mxGeometry y="164" width="410" height="26" as="geometry" />
        </mxCell>
        <mxCell id="hdaKIBXGjX3yEsH8_jmL-103" value="+preview_all(): void" style="text;strokeColor=none;fillColor=none;align=left;verticalAlign=top;spacingLeft=4;spacingRight=4;overflow=hidden;rotatable=0;points=[[0,0.5],[1,0.5]];portConstraint=eastwest;whiteSpace=wrap;html=1;" vertex="1" parent="hdaKIBXGjX3yEsH8_jmL-2">
          <mxGeometry y="190" width="410" height="32" as="geometry" />
        </mxCell>
        <mxCell id="hdaKIBXGjX3yEsH8_jmL-106" value="+view_by_id(): void" style="text;strokeColor=none;fillColor=none;align=left;verticalAlign=top;spacingLeft=4;spacingRight=4;overflow=hidden;rotatable=0;points=[[0,0.5],[1,0.5]];portConstraint=eastwest;whiteSpace=wrap;html=1;" vertex="1" parent="hdaKIBXGjX3yEsH8_jmL-2">
          <mxGeometry y="222" width="410" height="26" as="geometry" />
        </mxCell>
        <mxCell id="hdaKIBXGjX3yEsH8_jmL-109" value="+new_ticket(): void" style="text;strokeColor=none;fillColor=none;align=left;verticalAlign=top;spacingLeft=4;spacingRight=4;overflow=hidden;rotatable=0;points=[[0,0.5],[1,0.5]];portConstraint=eastwest;whiteSpace=wrap;html=1;" vertex="1" parent="hdaKIBXGjX3yEsH8_jmL-2">
          <mxGeometry y="248" width="410" height="26" as="geometry" />
        </mxCell>
        <mxCell id="hdaKIBXGjX3yEsH8_jmL-108" value="+update_ticket(): void" style="text;strokeColor=none;fillColor=none;align=left;verticalAlign=top;spacingLeft=4;spacingRight=4;overflow=hidden;rotatable=0;points=[[0,0.5],[1,0.5]];portConstraint=eastwest;whiteSpace=wrap;html=1;" vertex="1" parent="hdaKIBXGjX3yEsH8_jmL-2">
          <mxGeometry y="274" width="410" height="26" as="geometry" />
        </mxCell>
        <mxCell id="hdaKIBXGjX3yEsH8_jmL-107" value="+delete_ticket(): void" style="text;strokeColor=none;fillColor=none;align=left;verticalAlign=top;spacingLeft=4;spacingRight=4;overflow=hidden;rotatable=0;points=[[0,0.5],[1,0.5]];portConstraint=eastwest;whiteSpace=wrap;html=1;" vertex="1" parent="hdaKIBXGjX3yEsH8_jmL-2">
          <mxGeometry y="300" width="410" height="26" as="geometry" />
        </mxCell>
        <mxCell id="hdaKIBXGjX3yEsH8_jmL-105" value="+search_by_name(): void" style="text;strokeColor=none;fillColor=none;align=left;verticalAlign=top;spacingLeft=4;spacingRight=4;overflow=hidden;rotatable=0;points=[[0,0.5],[1,0.5]];portConstraint=eastwest;whiteSpace=wrap;html=1;" vertex="1" parent="hdaKIBXGjX3yEsH8_jmL-2">
          <mxGeometry y="326" width="410" height="26" as="geometry" />
        </mxCell>
        <mxCell id="hdaKIBXGjX3yEsH8_jmL-104" value="+show_completed(): void" style="text;strokeColor=none;fillColor=none;align=left;verticalAlign=top;spacingLeft=4;spacingRight=4;overflow=hidden;rotatable=0;points=[[0,0.5],[1,0.5]];portConstraint=eastwest;whiteSpace=wrap;html=1;" vertex="1" parent="hdaKIBXGjX3yEsH8_jmL-2">
          <mxGeometry y="352" width="410" height="26" as="geometry" />
        </mxCell>
        <mxCell id="hdaKIBXGjX3yEsH8_jmL-101" value="+show_deleted(): void" style="text;strokeColor=none;fillColor=none;align=left;verticalAlign=top;spacingLeft=4;spacingRight=4;overflow=hidden;rotatable=0;points=[[0,0.5],[1,0.5]];portConstraint=eastwest;whiteSpace=wrap;html=1;" vertex="1" parent="hdaKIBXGjX3yEsH8_jmL-2">
          <mxGeometry y="378" width="410" height="26" as="geometry" />
        </mxCell>
        <mxCell id="hdaKIBXGjX3yEsH8_jmL-110" value="+show_all_raw(): void" style="text;strokeColor=none;fillColor=none;align=left;verticalAlign=top;spacingLeft=4;spacingRight=4;overflow=hidden;rotatable=0;points=[[0,0.5],[1,0.5]];portConstraint=eastwest;whiteSpace=wrap;html=1;" vertex="1" parent="hdaKIBXGjX3yEsH8_jmL-2">
          <mxGeometry y="404" width="410" height="26" as="geometry" />
        </mxCell>
        <mxCell id="hdaKIBXGjX3yEsH8_jmL-111" value="+quit(): void" style="text;strokeColor=none;fillColor=none;align=left;verticalAlign=top;spacingLeft=4;spacingRight=4;overflow=hidden;rotatable=0;points=[[0,0.5],[1,0.5]];portConstraint=eastwest;whiteSpace=wrap;html=1;" vertex="1" parent="hdaKIBXGjX3yEsH8_jmL-2">
          <mxGeometry y="430" width="410" height="26" as="geometry" />
        </mxCell>
        <mxCell id="hdaKIBXGjX3yEsH8_jmL-6" value="BaseConfiguration: Singleton" style="swimlane;fontStyle=1;align=center;verticalAlign=top;childLayout=stackLayout;horizontal=1;startSize=26;horizontalStack=0;resizeParent=1;resizeParentMax=0;resizeLast=0;collapsible=1;marginBottom=0;whiteSpace=wrap;html=1;" vertex="1" parent="1">
          <mxGeometry x="-310" y="140" width="250" height="112" as="geometry" />
        </mxCell>
        <mxCell id="hdaKIBXGjX3yEsH8_jmL-7" value="+app_db_conn: DatabaseConnection" style="text;strokeColor=none;fillColor=none;align=left;verticalAlign=top;spacingLeft=4;spacingRight=4;overflow=hidden;rotatable=0;points=[[0,0.5],[1,0.5]];portConstraint=eastwest;whiteSpace=wrap;html=1;" vertex="1" parent="hdaKIBXGjX3yEsH8_jmL-6">
          <mxGeometry y="26" width="250" height="26" as="geometry" />
        </mxCell>
        <mxCell id="hdaKIBXGjX3yEsH8_jmL-89" value="+output_manager: OutputManager" style="text;strokeColor=none;fillColor=none;align=left;verticalAlign=top;spacingLeft=4;spacingRight=4;overflow=hidden;rotatable=0;points=[[0,0.5],[1,0.5]];portConstraint=eastwest;whiteSpace=wrap;html=1;" vertex="1" parent="hdaKIBXGjX3yEsH8_jmL-6">
          <mxGeometry y="52" width="250" height="26" as="geometry" />
        </mxCell>
        <mxCell id="hdaKIBXGjX3yEsH8_jmL-8" value="" style="line;strokeWidth=1;fillColor=none;align=left;verticalAlign=middle;spacingTop=-1;spacingLeft=3;spacingRight=3;rotatable=0;labelPosition=right;points=[];portConstraint=eastwest;strokeColor=inherit;" vertex="1" parent="hdaKIBXGjX3yEsH8_jmL-6">
          <mxGeometry y="78" width="250" height="8" as="geometry" />
        </mxCell>
        <mxCell id="hdaKIBXGjX3yEsH8_jmL-9" value="+__init__()" style="text;strokeColor=none;fillColor=none;align=left;verticalAlign=top;spacingLeft=4;spacingRight=4;overflow=hidden;rotatable=0;points=[[0,0.5],[1,0.5]];portConstraint=eastwest;whiteSpace=wrap;html=1;" vertex="1" parent="hdaKIBXGjX3yEsH8_jmL-6">
          <mxGeometry y="86" width="250" height="26" as="geometry" />
        </mxCell>
        <mxCell id="hdaKIBXGjX3yEsH8_jmL-10" value="DatabaseConnection" style="swimlane;fontStyle=1;align=center;verticalAlign=top;childLayout=stackLayout;horizontal=1;startSize=26;horizontalStack=0;resizeParent=1;resizeParentMax=0;resizeLast=0;collapsible=1;marginBottom=0;whiteSpace=wrap;html=1;" vertex="1" parent="1">
          <mxGeometry x="-750" y="58" width="240" height="112" as="geometry" />
        </mxCell>
        <mxCell id="hdaKIBXGjX3yEsH8_jmL-11" value="+connection: sqlite3_connection" style="text;strokeColor=none;fillColor=none;align=left;verticalAlign=top;spacingLeft=4;spacingRight=4;overflow=hidden;rotatable=0;points=[[0,0.5],[1,0.5]];portConstraint=eastwest;whiteSpace=wrap;html=1;" vertex="1" parent="hdaKIBXGjX3yEsH8_jmL-10">
          <mxGeometry y="26" width="240" height="26" as="geometry" />
        </mxCell>
        <mxCell id="hdaKIBXGjX3yEsH8_jmL-76" value="+cursor: sqlite3_cursor" style="text;strokeColor=none;fillColor=none;align=left;verticalAlign=top;spacingLeft=4;spacingRight=4;overflow=hidden;rotatable=0;points=[[0,0.5],[1,0.5]];portConstraint=eastwest;whiteSpace=wrap;html=1;" vertex="1" parent="hdaKIBXGjX3yEsH8_jmL-10">
          <mxGeometry y="52" width="240" height="26" as="geometry" />
        </mxCell>
        <mxCell id="hdaKIBXGjX3yEsH8_jmL-12" value="" style="line;strokeWidth=1;fillColor=none;align=left;verticalAlign=middle;spacingTop=-1;spacingLeft=3;spacingRight=3;rotatable=0;labelPosition=right;points=[];portConstraint=eastwest;strokeColor=inherit;" vertex="1" parent="hdaKIBXGjX3yEsH8_jmL-10">
          <mxGeometry y="78" width="240" height="8" as="geometry" />
        </mxCell>
        <mxCell id="hdaKIBXGjX3yEsH8_jmL-77" value="+close(): void" style="text;strokeColor=none;fillColor=none;align=left;verticalAlign=top;spacingLeft=4;spacingRight=4;overflow=hidden;rotatable=0;points=[[0,0.5],[1,0.5]];portConstraint=eastwest;whiteSpace=wrap;html=1;" vertex="1" parent="hdaKIBXGjX3yEsH8_jmL-10">
          <mxGeometry y="86" width="240" height="26" as="geometry" />
        </mxCell>
        <mxCell id="hdaKIBXGjX3yEsH8_jmL-14" value="TicketConfiguration" style="swimlane;fontStyle=1;align=center;verticalAlign=top;childLayout=stackLayout;horizontal=1;startSize=26;horizontalStack=0;resizeParent=1;resizeParentMax=0;resizeLast=0;collapsible=1;marginBottom=0;whiteSpace=wrap;html=1;" vertex="1" parent="1">
          <mxGeometry x="-620" y="320" width="250" height="78" as="geometry" />
        </mxCell>
        <mxCell id="hdaKIBXGjX3yEsH8_jmL-17" value="+__init__()" style="text;strokeColor=none;fillColor=none;align=left;verticalAlign=top;spacingLeft=4;spacingRight=4;overflow=hidden;rotatable=0;points=[[0,0.5],[1,0.5]];portConstraint=eastwest;whiteSpace=wrap;html=1;" vertex="1" parent="hdaKIBXGjX3yEsH8_jmL-14">
          <mxGeometry y="26" width="250" height="26" as="geometry" />
        </mxCell>
        <mxCell id="hdaKIBXGjX3yEsH8_jmL-90" value="+compose_ticket_controller: TicketController" style="text;strokeColor=none;fillColor=none;align=left;verticalAlign=top;spacingLeft=4;spacingRight=4;overflow=hidden;rotatable=0;points=[[0,0.5],[1,0.5]];portConstraint=eastwest;whiteSpace=wrap;html=1;" vertex="1" parent="hdaKIBXGjX3yEsH8_jmL-14">
          <mxGeometry y="52" width="250" height="26" as="geometry" />
        </mxCell>
        <mxCell id="hdaKIBXGjX3yEsH8_jmL-18" value="OutputManager" style="swimlane;fontStyle=1;align=center;verticalAlign=top;childLayout=stackLayout;horizontal=1;startSize=26;horizontalStack=0;resizeParent=1;resizeParentMax=0;resizeLast=0;collapsible=1;marginBottom=0;whiteSpace=wrap;html=1;" vertex="1" parent="1">
          <mxGeometry x="10" y="290" width="370" height="450" as="geometry" />
        </mxCell>
        <mxCell id="hdaKIBXGjX3yEsH8_jmL-19" value="-formatter: Formatter" style="text;strokeColor=none;fillColor=none;align=left;verticalAlign=top;spacingLeft=4;spacingRight=4;overflow=hidden;rotatable=0;points=[[0,0.5],[1,0.5]];portConstraint=eastwest;whiteSpace=wrap;html=1;" vertex="1" parent="hdaKIBXGjX3yEsH8_jmL-18">
          <mxGeometry y="26" width="370" height="26" as="geometry" />
        </mxCell>
        <mxCell id="hdaKIBXGjX3yEsH8_jmL-112" value="-prompt_manager: PromptManager&lt;br&gt;" style="text;strokeColor=none;fillColor=none;align=left;verticalAlign=top;spacingLeft=4;spacingRight=4;overflow=hidden;rotatable=0;points=[[0,0.5],[1,0.5]];portConstraint=eastwest;whiteSpace=wrap;html=1;" vertex="1" parent="hdaKIBXGjX3yEsH8_jmL-18">
          <mxGeometry y="52" width="370" height="26" as="geometry" />
        </mxCell>
        <mxCell id="hdaKIBXGjX3yEsH8_jmL-114" value="-start_options: string[]" style="text;strokeColor=none;fillColor=none;align=left;verticalAlign=top;spacingLeft=4;spacingRight=4;overflow=hidden;rotatable=0;points=[[0,0.5],[1,0.5]];portConstraint=eastwest;whiteSpace=wrap;html=1;" vertex="1" parent="hdaKIBXGjX3yEsH8_jmL-18">
          <mxGeometry y="78" width="370" height="26" as="geometry" />
        </mxCell>
        <mxCell id="hdaKIBXGjX3yEsH8_jmL-113" value="-update_options: string[]" style="text;strokeColor=none;fillColor=none;align=left;verticalAlign=top;spacingLeft=4;spacingRight=4;overflow=hidden;rotatable=0;points=[[0,0.5],[1,0.5]];portConstraint=eastwest;whiteSpace=wrap;html=1;" vertex="1" parent="hdaKIBXGjX3yEsH8_jmL-18">
          <mxGeometry y="104" width="370" height="26" as="geometry" />
        </mxCell>
        <mxCell id="hdaKIBXGjX3yEsH8_jmL-20" value="" style="line;strokeWidth=1;fillColor=none;align=left;verticalAlign=middle;spacingTop=-1;spacingLeft=3;spacingRight=3;rotatable=0;labelPosition=right;points=[];portConstraint=eastwest;strokeColor=inherit;" vertex="1" parent="hdaKIBXGjX3yEsH8_jmL-18">
          <mxGeometry y="130" width="370" height="8" as="geometry" />
        </mxCell>
        <mxCell id="hdaKIBXGjX3yEsH8_jmL-21" value="-print_single_line(obj: object, colour_func: void): void" style="text;strokeColor=none;fillColor=none;align=left;verticalAlign=top;spacingLeft=4;spacingRight=4;overflow=hidden;rotatable=0;points=[[0,0.5],[1,0.5]];portConstraint=eastwest;whiteSpace=wrap;html=1;" vertex="1" parent="hdaKIBXGjX3yEsH8_jmL-18">
          <mxGeometry y="138" width="370" height="26" as="geometry" />
        </mxCell>
        <mxCell id="hdaKIBXGjX3yEsH8_jmL-116" value="-print_multi_line(obj: object, colour_func: void): void" style="text;strokeColor=none;fillColor=none;align=left;verticalAlign=top;spacingLeft=4;spacingRight=4;overflow=hidden;rotatable=0;points=[[0,0.5],[1,0.5]];portConstraint=eastwest;whiteSpace=wrap;html=1;" vertex="1" parent="hdaKIBXGjX3yEsH8_jmL-18">
          <mxGeometry y="164" width="370" height="26" as="geometry" />
        </mxCell>
        <mxCell id="hdaKIBXGjX3yEsH8_jmL-119" value="-handle_print(objects: object[], single_line: bool): void" style="text;strokeColor=none;fillColor=none;align=left;verticalAlign=top;spacingLeft=4;spacingRight=4;overflow=hidden;rotatable=0;points=[[0,0.5],[1,0.5]];portConstraint=eastwest;whiteSpace=wrap;html=1;" vertex="1" parent="hdaKIBXGjX3yEsH8_jmL-18">
          <mxGeometry y="190" width="370" height="26" as="geometry" />
        </mxCell>
        <mxCell id="hdaKIBXGjX3yEsH8_jmL-121" value="+multi_line(objects: object[]): void" style="text;strokeColor=none;fillColor=none;align=left;verticalAlign=top;spacingLeft=4;spacingRight=4;overflow=hidden;rotatable=0;points=[[0,0.5],[1,0.5]];portConstraint=eastwest;whiteSpace=wrap;html=1;" vertex="1" parent="hdaKIBXGjX3yEsH8_jmL-18">
          <mxGeometry y="216" width="370" height="26" as="geometry" />
        </mxCell>
        <mxCell id="hdaKIBXGjX3yEsH8_jmL-124" value="+single_line(objects: object[]): void" style="text;strokeColor=none;fillColor=none;align=left;verticalAlign=top;spacingLeft=4;spacingRight=4;overflow=hidden;rotatable=0;points=[[0,0.5],[1,0.5]];portConstraint=eastwest;whiteSpace=wrap;html=1;" vertex="1" parent="hdaKIBXGjX3yEsH8_jmL-18">
          <mxGeometry y="242" width="370" height="26" as="geometry" />
        </mxCell>
        <mxCell id="hdaKIBXGjX3yEsH8_jmL-125" value="+startup_message(): int" style="text;strokeColor=none;fillColor=none;align=left;verticalAlign=top;spacingLeft=4;spacingRight=4;overflow=hidden;rotatable=0;points=[[0,0.5],[1,0.5]];portConstraint=eastwest;whiteSpace=wrap;html=1;" vertex="1" parent="hdaKIBXGjX3yEsH8_jmL-18">
          <mxGeometry y="268" width="370" height="26" as="geometry" />
        </mxCell>
        <mxCell id="hdaKIBXGjX3yEsH8_jmL-123" value="+no_records_found(optional: str | none): void" style="text;strokeColor=none;fillColor=none;align=left;verticalAlign=top;spacingLeft=4;spacingRight=4;overflow=hidden;rotatable=0;points=[[0,0.5],[1,0.5]];portConstraint=eastwest;whiteSpace=wrap;html=1;" vertex="1" parent="hdaKIBXGjX3yEsH8_jmL-18">
          <mxGeometry y="294" width="370" height="26" as="geometry" />
        </mxCell>
        <mxCell id="hdaKIBXGjX3yEsH8_jmL-122" value="+print_options(options: string[]): void" style="text;strokeColor=none;fillColor=none;align=left;verticalAlign=top;spacingLeft=4;spacingRight=4;overflow=hidden;rotatable=0;points=[[0,0.5],[1,0.5]];portConstraint=eastwest;whiteSpace=wrap;html=1;" vertex="1" parent="hdaKIBXGjX3yEsH8_jmL-18">
          <mxGeometry y="320" width="370" height="26" as="geometry" />
        </mxCell>
        <mxCell id="hdaKIBXGjX3yEsH8_jmL-120" value="+get_id_input(range: int): int" style="text;strokeColor=none;fillColor=none;align=left;verticalAlign=top;spacingLeft=4;spacingRight=4;overflow=hidden;rotatable=0;points=[[0,0.5],[1,0.5]];portConstraint=eastwest;whiteSpace=wrap;html=1;" vertex="1" parent="hdaKIBXGjX3yEsH8_jmL-18">
          <mxGeometry y="346" width="370" height="26" as="geometry" />
        </mxCell>
        <mxCell id="hdaKIBXGjX3yEsH8_jmL-118" value="+display_update_information(items: object[])" style="text;strokeColor=none;fillColor=none;align=left;verticalAlign=top;spacingLeft=4;spacingRight=4;overflow=hidden;rotatable=0;points=[[0,0.5],[1,0.5]];portConstraint=eastwest;whiteSpace=wrap;html=1;" vertex="1" parent="hdaKIBXGjX3yEsH8_jmL-18">
          <mxGeometry y="372" width="370" height="26" as="geometry" />
        </mxCell>
        <mxCell id="hdaKIBXGjX3yEsH8_jmL-117" value="+display_time_logging_information(remaining_time: float): float" style="text;strokeColor=none;fillColor=none;align=left;verticalAlign=top;spacingLeft=4;spacingRight=4;overflow=hidden;rotatable=0;points=[[0,0.5],[1,0.5]];portConstraint=eastwest;whiteSpace=wrap;html=1;" vertex="1" parent="hdaKIBXGjX3yEsH8_jmL-18">
          <mxGeometry y="398" width="370" height="26" as="geometry" />
        </mxCell>
        <mxCell id="hdaKIBXGjX3yEsH8_jmL-115" value="+show_time_logged(time_logged: float, time_remaining: float: void" style="text;strokeColor=none;fillColor=none;align=left;verticalAlign=top;spacingLeft=4;spacingRight=4;overflow=hidden;rotatable=0;points=[[0,0.5],[1,0.5]];portConstraint=eastwest;whiteSpace=wrap;html=1;" vertex="1" parent="hdaKIBXGjX3yEsH8_jmL-18">
          <mxGeometry y="424" width="370" height="26" as="geometry" />
        </mxCell>
        <mxCell id="hdaKIBXGjX3yEsH8_jmL-22" value="Formatter" style="swimlane;fontStyle=1;align=center;verticalAlign=top;childLayout=stackLayout;horizontal=1;startSize=26;horizontalStack=0;resizeParent=1;resizeParentMax=0;resizeLast=0;collapsible=1;marginBottom=0;whiteSpace=wrap;html=1;" vertex="1" parent="1">
          <mxGeometry x="30" y="20" width="250" height="130" as="geometry" />
        </mxCell>
        <mxCell id="hdaKIBXGjX3yEsH8_jmL-23" value="+make_readable(key: string): string" style="text;strokeColor=none;fillColor=none;align=left;verticalAlign=top;spacingLeft=4;spacingRight=4;overflow=hidden;rotatable=0;points=[[0,0.5],[1,0.5]];portConstraint=eastwest;whiteSpace=wrap;html=1;" vertex="1" parent="hdaKIBXGjX3yEsH8_jmL-22">
          <mxGeometry y="26" width="250" height="26" as="geometry" />
        </mxCell>
        <mxCell id="hdaKIBXGjX3yEsH8_jmL-25" value="+&amp;nbsp;day_suffix&lt;span style=&quot;background-color: initial;&quot;&gt;(day: int): string&lt;/span&gt;" style="text;strokeColor=none;fillColor=none;align=left;verticalAlign=top;spacingLeft=4;spacingRight=4;overflow=hidden;rotatable=0;points=[[0,0.5],[1,0.5]];portConstraint=eastwest;whiteSpace=wrap;html=1;" vertex="1" parent="hdaKIBXGjX3yEsH8_jmL-22">
          <mxGeometry y="52" width="250" height="26" as="geometry" />
        </mxCell>
        <mxCell id="hdaKIBXGjX3yEsH8_jmL-78" value="+format_date(date: datetime): string" style="text;strokeColor=none;fillColor=none;align=left;verticalAlign=top;spacingLeft=4;spacingRight=4;overflow=hidden;rotatable=0;points=[[0,0.5],[1,0.5]];portConstraint=eastwest;whiteSpace=wrap;html=1;" vertex="1" parent="hdaKIBXGjX3yEsH8_jmL-22">
          <mxGeometry y="78" width="250" height="26" as="geometry" />
        </mxCell>
        <mxCell id="hdaKIBXGjX3yEsH8_jmL-79" value="+format_object(obj: object): string" style="text;strokeColor=none;fillColor=none;align=left;verticalAlign=top;spacingLeft=4;spacingRight=4;overflow=hidden;rotatable=0;points=[[0,0.5],[1,0.5]];portConstraint=eastwest;whiteSpace=wrap;html=1;" vertex="1" parent="hdaKIBXGjX3yEsH8_jmL-22">
          <mxGeometry y="104" width="250" height="26" as="geometry" />
        </mxCell>
        <mxCell id="hdaKIBXGjX3yEsH8_jmL-26" value="PromptManager" style="swimlane;fontStyle=1;align=center;verticalAlign=top;childLayout=stackLayout;horizontal=1;startSize=26;horizontalStack=0;resizeParent=1;resizeParentMax=0;resizeLast=0;collapsible=1;marginBottom=0;whiteSpace=wrap;html=1;" vertex="1" parent="1">
          <mxGeometry x="480" y="166" width="380" height="182" as="geometry" />
        </mxCell>
        <mxCell id="hdaKIBXGjX3yEsH8_jmL-27" value="+get_user_choice(options: string[]): int | float" style="text;strokeColor=none;fillColor=none;align=left;verticalAlign=top;spacingLeft=4;spacingRight=4;overflow=hidden;rotatable=0;points=[[0,0.5],[1,0.5]];portConstraint=eastwest;whiteSpace=wrap;html=1;" vertex="1" parent="hdaKIBXGjX3yEsH8_jmL-26">
          <mxGeometry y="26" width="380" height="26" as="geometry" />
        </mxCell>
        <mxCell id="hdaKIBXGjX3yEsH8_jmL-81" value="+get_number_from_user(as_float: bool) : int | float" style="text;strokeColor=none;fillColor=none;align=left;verticalAlign=top;spacingLeft=4;spacingRight=4;overflow=hidden;rotatable=0;points=[[0,0.5],[1,0.5]];portConstraint=eastwest;whiteSpace=wrap;html=1;" vertex="1" parent="hdaKIBXGjX3yEsH8_jmL-26">
          <mxGeometry y="52" width="380" height="26" as="geometry" />
        </mxCell>
        <mxCell id="hdaKIBXGjX3yEsH8_jmL-83" value="+get_number_from_user_in_range(top_end: int | float): int | float&amp;nbsp;" style="text;strokeColor=none;fillColor=none;align=left;verticalAlign=top;spacingLeft=4;spacingRight=4;overflow=hidden;rotatable=0;points=[[0,0.5],[1,0.5]];portConstraint=eastwest;whiteSpace=wrap;html=1;" vertex="1" parent="hdaKIBXGjX3yEsH8_jmL-26">
          <mxGeometry y="78" width="380" height="26" as="geometry" />
        </mxCell>
        <mxCell id="hdaKIBXGjX3yEsH8_jmL-84" value="+get_raw_string_from_user(): string" style="text;strokeColor=none;fillColor=none;align=left;verticalAlign=top;spacingLeft=4;spacingRight=4;overflow=hidden;rotatable=0;points=[[0,0.5],[1,0.5]];portConstraint=eastwest;whiteSpace=wrap;html=1;" vertex="1" parent="hdaKIBXGjX3yEsH8_jmL-26">
          <mxGeometry y="104" width="380" height="26" as="geometry" />
        </mxCell>
        <mxCell id="hdaKIBXGjX3yEsH8_jmL-82" value="+get_user_confirmation(opt_string: string?, id: int): bool" style="text;strokeColor=none;fillColor=none;align=left;verticalAlign=top;spacingLeft=4;spacingRight=4;overflow=hidden;rotatable=0;points=[[0,0.5],[1,0.5]];portConstraint=eastwest;whiteSpace=wrap;html=1;" vertex="1" parent="hdaKIBXGjX3yEsH8_jmL-26">
          <mxGeometry y="130" width="380" height="26" as="geometry" />
        </mxCell>
        <mxCell id="hdaKIBXGjX3yEsH8_jmL-29" value="+continue_message(): void" style="text;strokeColor=none;fillColor=none;align=left;verticalAlign=top;spacingLeft=4;spacingRight=4;overflow=hidden;rotatable=0;points=[[0,0.5],[1,0.5]];portConstraint=eastwest;whiteSpace=wrap;html=1;" vertex="1" parent="hdaKIBXGjX3yEsH8_jmL-26">
          <mxGeometry y="156" width="380" height="26" as="geometry" />
        </mxCell>
        <mxCell id="hdaKIBXGjX3yEsH8_jmL-35" style="edgeStyle=orthogonalEdgeStyle;rounded=0;orthogonalLoop=1;jettySize=auto;html=1;entryX=0.41;entryY=0;entryDx=0;entryDy=0;strokeColor=default;endArrow=none;endFill=0;entryPerimeter=0;" edge="1" parent="1" source="hdaKIBXGjX3yEsH8_jmL-31" target="hdaKIBXGjX3yEsH8_jmL-6">
          <mxGeometry relative="1" as="geometry" />
        </mxCell>
        <mxCell id="hdaKIBXGjX3yEsH8_jmL-31" value="Singleton" style="swimlane;fontStyle=1;align=center;verticalAlign=top;childLayout=stackLayout;horizontal=1;startSize=26;horizontalStack=0;resizeParent=1;resizeParentMax=0;resizeLast=0;collapsible=1;marginBottom=0;whiteSpace=wrap;html=1;" vertex="1" parent="1">
          <mxGeometry x="-360" y="-16" width="300" height="86" as="geometry">
            <mxRectangle x="400" y="176" width="100" height="30" as="alternateBounds" />
          </mxGeometry>
        </mxCell>
        <mxCell id="hdaKIBXGjX3yEsH8_jmL-32" value="-instances: dict[str, cls]" style="text;strokeColor=none;fillColor=none;align=left;verticalAlign=top;spacingLeft=4;spacingRight=4;overflow=hidden;rotatable=0;points=[[0,0.5],[1,0.5]];portConstraint=eastwest;whiteSpace=wrap;html=1;" vertex="1" parent="hdaKIBXGjX3yEsH8_jmL-31">
          <mxGeometry y="26" width="300" height="26" as="geometry" />
        </mxCell>
        <mxCell id="hdaKIBXGjX3yEsH8_jmL-33" value="" style="line;strokeWidth=1;fillColor=none;align=left;verticalAlign=middle;spacingTop=-1;spacingLeft=3;spacingRight=3;rotatable=0;labelPosition=right;points=[];portConstraint=eastwest;strokeColor=inherit;" vertex="1" parent="hdaKIBXGjX3yEsH8_jmL-31">
          <mxGeometry y="52" width="300" height="8" as="geometry" />
        </mxCell>
        <mxCell id="hdaKIBXGjX3yEsH8_jmL-34" value="-__call__(cls, *args, *kwargs): cls" style="text;strokeColor=none;fillColor=none;align=left;verticalAlign=top;spacingLeft=4;spacingRight=4;overflow=hidden;rotatable=0;points=[[0,0.5],[1,0.5]];portConstraint=eastwest;whiteSpace=wrap;html=1;" vertex="1" parent="hdaKIBXGjX3yEsH8_jmL-31">
          <mxGeometry y="60" width="300" height="26" as="geometry" />
        </mxCell>
        <mxCell id="hdaKIBXGjX3yEsH8_jmL-36" style="edgeStyle=orthogonalEdgeStyle;rounded=0;orthogonalLoop=1;jettySize=auto;html=1;exitX=1;exitY=0.5;exitDx=0;exitDy=0;entryX=0.009;entryY=0.1;entryDx=0;entryDy=0;entryPerimeter=0;endArrow=diamondThin;endFill=0;jumpSize=13;endSize=14;" edge="1" parent="1" source="hdaKIBXGjX3yEsH8_jmL-76" target="hdaKIBXGjX3yEsH8_jmL-89">
          <mxGeometry relative="1" as="geometry">
            <mxPoint x="30" y="145" as="sourcePoint" />
          </mxGeometry>
        </mxCell>
        <mxCell id="hdaKIBXGjX3yEsH8_jmL-37" style="edgeStyle=orthogonalEdgeStyle;rounded=0;orthogonalLoop=1;jettySize=auto;html=1;exitX=0.03;exitY=0.561;exitDx=0;exitDy=0;entryX=1.002;entryY=0.954;entryDx=0;entryDy=0;endArrow=diamondThin;endFill=0;jumpSize=13;endSize=14;exitPerimeter=0;entryPerimeter=0;" edge="1" parent="1" source="hdaKIBXGjX3yEsH8_jmL-20" target="hdaKIBXGjX3yEsH8_jmL-89">
          <mxGeometry relative="1" as="geometry">
            <mxPoint x="110" y="103" as="sourcePoint" />
            <mxPoint x="131" y="188" as="targetPoint" />
          </mxGeometry>
        </mxCell>
        <mxCell id="hdaKIBXGjX3yEsH8_jmL-38" style="edgeStyle=orthogonalEdgeStyle;rounded=0;orthogonalLoop=1;jettySize=auto;html=1;exitX=0;exitY=0.5;exitDx=0;exitDy=0;entryX=1.008;entryY=0.734;entryDx=0;entryDy=0;endArrow=diamondThin;endFill=1;jumpSize=13;endSize=14;entryPerimeter=0;" edge="1" parent="1" source="hdaKIBXGjX3yEsH8_jmL-29" target="hdaKIBXGjX3yEsH8_jmL-19">
          <mxGeometry relative="1" as="geometry">
            <mxPoint x="196" y="85" as="sourcePoint" />
            <mxPoint x="165" y="190" as="targetPoint" />
          </mxGeometry>
        </mxCell>
        <mxCell id="hdaKIBXGjX3yEsH8_jmL-40" style="edgeStyle=orthogonalEdgeStyle;rounded=0;orthogonalLoop=1;jettySize=auto;html=1;entryX=0.5;entryY=0;entryDx=0;entryDy=0;exitX=0.689;exitY=1;exitDx=0;exitDy=0;exitPerimeter=0;endArrow=block;endFill=0;endSize=12;" edge="1" parent="1" source="hdaKIBXGjX3yEsH8_jmL-9" target="hdaKIBXGjX3yEsH8_jmL-14">
          <mxGeometry relative="1" as="geometry">
            <mxPoint x="200" y="300" as="sourcePoint" />
            <Array as="points">
              <mxPoint x="-190" y="252" />
              <mxPoint x="-190" y="281" />
              <mxPoint x="-495" y="281" />
            </Array>
          </mxGeometry>
        </mxCell>
        <mxCell id="hdaKIBXGjX3yEsH8_jmL-42" style="edgeStyle=orthogonalEdgeStyle;rounded=0;orthogonalLoop=1;jettySize=auto;html=1;exitX=0.655;exitY=0.991;exitDx=0;exitDy=0;entryX=0.5;entryY=0;entryDx=0;entryDy=0;endArrow=diamondThin;endFill=1;endSize=13;exitPerimeter=0;" edge="1" parent="1" source="hdaKIBXGjX3yEsH8_jmL-90" target="hdaKIBXGjX3yEsH8_jmL-2">
          <mxGeometry relative="1" as="geometry">
            <mxPoint x="30" y="403" as="sourcePoint" />
          </mxGeometry>
        </mxCell>
        <mxCell id="hdaKIBXGjX3yEsH8_jmL-43" value="TicketService" style="swimlane;fontStyle=1;align=center;verticalAlign=top;childLayout=stackLayout;horizontal=1;startSize=26;horizontalStack=0;resizeParent=1;resizeParentMax=0;resizeLast=0;collapsible=1;marginBottom=0;whiteSpace=wrap;html=1;" vertex="1" parent="1">
          <mxGeometry x="-1290" y="348" width="520" height="372" as="geometry" />
        </mxCell>
        <mxCell id="hdaKIBXGjX3yEsH8_jmL-44" value="-ticket_repository: TicketRepository" style="text;strokeColor=none;fillColor=none;align=left;verticalAlign=top;spacingLeft=4;spacingRight=4;overflow=hidden;rotatable=0;points=[[0,0.5],[1,0.5]];portConstraint=eastwest;whiteSpace=wrap;html=1;" vertex="1" parent="hdaKIBXGjX3yEsH8_jmL-43">
          <mxGeometry y="26" width="520" height="26" as="geometry" />
        </mxCell>
        <mxCell id="hdaKIBXGjX3yEsH8_jmL-45" value="" style="line;strokeWidth=1;fillColor=none;align=left;verticalAlign=middle;spacingTop=-1;spacingLeft=3;spacingRight=3;rotatable=0;labelPosition=right;points=[];portConstraint=eastwest;strokeColor=inherit;" vertex="1" parent="hdaKIBXGjX3yEsH8_jmL-43">
          <mxGeometry y="52" width="520" height="8" as="geometry" />
        </mxCell>
        <mxCell id="hdaKIBXGjX3yEsH8_jmL-46" value="+build_ticket(validated_inputs: ValidatedUserTicketInputs): TicketModel" style="text;strokeColor=none;fillColor=none;align=left;verticalAlign=top;spacingLeft=4;spacingRight=4;overflow=hidden;rotatable=0;points=[[0,0.5],[1,0.5]];portConstraint=eastwest;whiteSpace=wrap;html=1;" vertex="1" parent="hdaKIBXGjX3yEsH8_jmL-43">
          <mxGeometry y="60" width="520" height="26" as="geometry" />
        </mxCell>
        <mxCell id="hdaKIBXGjX3yEsH8_jmL-139" value="+create_ticket(validated_inputs: ValidatedUserTicketInputs): TicketModel" style="text;strokeColor=none;fillColor=none;align=left;verticalAlign=top;spacingLeft=4;spacingRight=4;overflow=hidden;rotatable=0;points=[[0,0.5],[1,0.5]];portConstraint=eastwest;whiteSpace=wrap;html=1;" vertex="1" parent="hdaKIBXGjX3yEsH8_jmL-43">
          <mxGeometry y="86" width="520" height="26" as="geometry" />
        </mxCell>
        <mxCell id="hdaKIBXGjX3yEsH8_jmL-142" value="+create_preview(tickets: TicketModel[]): TicketPreviewModel[]" style="text;strokeColor=none;fillColor=none;align=left;verticalAlign=top;spacingLeft=4;spacingRight=4;overflow=hidden;rotatable=0;points=[[0,0.5],[1,0.5]];portConstraint=eastwest;whiteSpace=wrap;html=1;" vertex="1" parent="hdaKIBXGjX3yEsH8_jmL-43">
          <mxGeometry y="112" width="520" height="26" as="geometry" />
        </mxCell>
        <mxCell id="hdaKIBXGjX3yEsH8_jmL-148" value="+order_by_priority(tickets: TicketModel[]): TicketModel[]" style="text;strokeColor=none;fillColor=none;align=left;verticalAlign=top;spacingLeft=4;spacingRight=4;overflow=hidden;rotatable=0;points=[[0,0.5],[1,0.5]];portConstraint=eastwest;whiteSpace=wrap;html=1;" vertex="1" parent="hdaKIBXGjX3yEsH8_jmL-43">
          <mxGeometry y="138" width="520" height="26" as="geometry" />
        </mxCell>
        <mxCell id="hdaKIBXGjX3yEsH8_jmL-147" value="+sort_by_remaining_time(tickets: TicketModel[]): TicketModel[]" style="text;strokeColor=none;fillColor=none;align=left;verticalAlign=top;spacingLeft=4;spacingRight=4;overflow=hidden;rotatable=0;points=[[0,0.5],[1,0.5]];portConstraint=eastwest;whiteSpace=wrap;html=1;" vertex="1" parent="hdaKIBXGjX3yEsH8_jmL-43">
          <mxGeometry y="164" width="520" height="26" as="geometry" />
        </mxCell>
        <mxCell id="hdaKIBXGjX3yEsH8_jmL-150" value="+search_string_values(tickets: TicketModel[], query: string): TicketModel[]" style="text;strokeColor=none;fillColor=none;align=left;verticalAlign=top;spacingLeft=4;spacingRight=4;overflow=hidden;rotatable=0;points=[[0,0.5],[1,0.5]];portConstraint=eastwest;whiteSpace=wrap;html=1;" vertex="1" parent="hdaKIBXGjX3yEsH8_jmL-43">
          <mxGeometry y="190" width="520" height="26" as="geometry" />
        </mxCell>
        <mxCell id="hdaKIBXGjX3yEsH8_jmL-149" value="+delete_record(id: int): TicketModel" style="text;strokeColor=none;fillColor=none;align=left;verticalAlign=top;spacingLeft=4;spacingRight=4;overflow=hidden;rotatable=0;points=[[0,0.5],[1,0.5]];portConstraint=eastwest;whiteSpace=wrap;html=1;" vertex="1" parent="hdaKIBXGjX3yEsH8_jmL-43">
          <mxGeometry y="216" width="520" height="26" as="geometry" />
        </mxCell>
        <mxCell id="hdaKIBXGjX3yEsH8_jmL-146" value="+populate_update_fields(ticket: TicketModel): ValidUpdateFields" style="text;strokeColor=none;fillColor=none;align=left;verticalAlign=top;spacingLeft=4;spacingRight=4;overflow=hidden;rotatable=0;points=[[0,0.5],[1,0.5]];portConstraint=eastwest;whiteSpace=wrap;html=1;" vertex="1" parent="hdaKIBXGjX3yEsH8_jmL-43">
          <mxGeometry y="242" width="520" height="26" as="geometry" />
        </mxCell>
        <mxCell id="hdaKIBXGjX3yEsH8_jmL-145" value="+update_record(ticket: TicketModel, field_to_update: int, updated_value: any): TicketModel" style="text;strokeColor=none;fillColor=none;align=left;verticalAlign=top;spacingLeft=4;spacingRight=4;overflow=hidden;rotatable=0;points=[[0,0.5],[1,0.5]];portConstraint=eastwest;whiteSpace=wrap;html=1;" vertex="1" parent="hdaKIBXGjX3yEsH8_jmL-43">
          <mxGeometry y="268" width="520" height="26" as="geometry" />
        </mxCell>
        <mxCell id="hdaKIBXGjX3yEsH8_jmL-144" value="+update_ticket_time(ticket: TicketModel, time: float): TicketModel" style="text;strokeColor=none;fillColor=none;align=left;verticalAlign=top;spacingLeft=4;spacingRight=4;overflow=hidden;rotatable=0;points=[[0,0.5],[1,0.5]];portConstraint=eastwest;whiteSpace=wrap;html=1;" vertex="1" parent="hdaKIBXGjX3yEsH8_jmL-43">
          <mxGeometry y="294" width="520" height="26" as="geometry" />
        </mxCell>
        <mxCell id="hdaKIBXGjX3yEsH8_jmL-143" value="+check_and_complete_ticket(ticket: TicketModel): TicketModel" style="text;strokeColor=none;fillColor=none;align=left;verticalAlign=top;spacingLeft=4;spacingRight=4;overflow=hidden;rotatable=0;points=[[0,0.5],[1,0.5]];portConstraint=eastwest;whiteSpace=wrap;html=1;" vertex="1" parent="hdaKIBXGjX3yEsH8_jmL-43">
          <mxGeometry y="320" width="520" height="26" as="geometry" />
        </mxCell>
        <mxCell id="hdaKIBXGjX3yEsH8_jmL-141" value="+log_time(ticket: TicketModel, time: float): TicketModel" style="text;strokeColor=none;fillColor=none;align=left;verticalAlign=top;spacingLeft=4;spacingRight=4;overflow=hidden;rotatable=0;points=[[0,0.5],[1,0.5]];portConstraint=eastwest;whiteSpace=wrap;html=1;" vertex="1" parent="hdaKIBXGjX3yEsH8_jmL-43">
          <mxGeometry y="346" width="520" height="26" as="geometry" />
        </mxCell>
        <mxCell id="hdaKIBXGjX3yEsH8_jmL-47" value="TicketRepository" style="swimlane;fontStyle=1;align=center;verticalAlign=top;childLayout=stackLayout;horizontal=1;startSize=26;horizontalStack=0;resizeParent=1;resizeParentMax=0;resizeLast=0;collapsible=1;marginBottom=0;whiteSpace=wrap;html=1;" vertex="1" parent="1">
          <mxGeometry x="-1350" y="18" width="480" height="218" as="geometry" />
        </mxCell>
        <mxCell id="hdaKIBXGjX3yEsH8_jmL-48" value="-db_conn: DatabaseConnection" style="text;strokeColor=none;fillColor=none;align=left;verticalAlign=top;spacingLeft=4;spacingRight=4;overflow=hidden;rotatable=0;points=[[0,0.5],[1,0.5]];portConstraint=eastwest;whiteSpace=wrap;html=1;" vertex="1" parent="hdaKIBXGjX3yEsH8_jmL-47">
          <mxGeometry y="26" width="480" height="26" as="geometry" />
        </mxCell>
        <mxCell id="hdaKIBXGjX3yEsH8_jmL-160" value="-table_name: string" style="text;strokeColor=none;fillColor=none;align=left;verticalAlign=top;spacingLeft=4;spacingRight=4;overflow=hidden;rotatable=0;points=[[0,0.5],[1,0.5]];portConstraint=eastwest;whiteSpace=wrap;html=1;" vertex="1" parent="hdaKIBXGjX3yEsH8_jmL-47">
          <mxGeometry y="52" width="480" height="26" as="geometry" />
        </mxCell>
        <mxCell id="hdaKIBXGjX3yEsH8_jmL-161" value="-model_class: TicketModel" style="text;strokeColor=none;fillColor=none;align=left;verticalAlign=top;spacingLeft=4;spacingRight=4;overflow=hidden;rotatable=0;points=[[0,0.5],[1,0.5]];portConstraint=eastwest;whiteSpace=wrap;html=1;" vertex="1" parent="hdaKIBXGjX3yEsH8_jmL-47">
          <mxGeometry y="78" width="480" height="26" as="geometry" />
        </mxCell>
        <mxCell id="hdaKIBXGjX3yEsH8_jmL-49" value="" style="line;strokeWidth=1;fillColor=none;align=left;verticalAlign=middle;spacingTop=-1;spacingLeft=3;spacingRight=3;rotatable=0;labelPosition=right;points=[];portConstraint=eastwest;strokeColor=inherit;" vertex="1" parent="hdaKIBXGjX3yEsH8_jmL-47">
          <mxGeometry y="104" width="480" height="8" as="geometry" />
        </mxCell>
        <mxCell id="hdaKIBXGjX3yEsH8_jmL-50" value="+__init__(DatabaseConnection, string)" style="text;strokeColor=none;fillColor=none;align=left;verticalAlign=top;spacingLeft=4;spacingRight=4;overflow=hidden;rotatable=0;points=[[0,0.5],[1,0.5]];portConstraint=eastwest;whiteSpace=wrap;html=1;" vertex="1" parent="hdaKIBXGjX3yEsH8_jmL-47">
          <mxGeometry y="112" width="480" height="26" as="geometry" />
        </mxCell>
        <mxCell id="hdaKIBXGjX3yEsH8_jmL-163" value="+seed_database(): void" style="text;strokeColor=none;fillColor=none;align=left;verticalAlign=top;spacingLeft=4;spacingRight=4;overflow=hidden;rotatable=0;points=[[0,0.5],[1,0.5]];portConstraint=eastwest;whiteSpace=wrap;html=1;" vertex="1" parent="hdaKIBXGjX3yEsH8_jmL-47">
          <mxGeometry y="138" width="480" height="26" as="geometry" />
        </mxCell>
        <mxCell id="hdaKIBXGjX3yEsH8_jmL-164" value="+update_record(id: int, updated_record: TicketModel, date: datetime): TicketModel" style="text;strokeColor=none;fillColor=none;align=left;verticalAlign=top;spacingLeft=4;spacingRight=4;overflow=hidden;rotatable=0;points=[[0,0.5],[1,0.5]];portConstraint=eastwest;whiteSpace=wrap;html=1;" vertex="1" parent="hdaKIBXGjX3yEsH8_jmL-47">
          <mxGeometry y="164" width="480" height="28" as="geometry" />
        </mxCell>
        <mxCell id="hdaKIBXGjX3yEsH8_jmL-162" value="+log_time(id: int, remaining_time: float, logged_time: float, date: datetime): TicketModel" style="text;strokeColor=none;fillColor=none;align=left;verticalAlign=top;spacingLeft=4;spacingRight=4;overflow=hidden;rotatable=0;points=[[0,0.5],[1,0.5]];portConstraint=eastwest;whiteSpace=wrap;html=1;" vertex="1" parent="hdaKIBXGjX3yEsH8_jmL-47">
          <mxGeometry y="192" width="480" height="26" as="geometry" />
        </mxCell>
        <mxCell id="hdaKIBXGjX3yEsH8_jmL-51" value="BaseRepository&amp;lt;T: BaseModel&amp;gt;" style="swimlane;fontStyle=1;align=center;verticalAlign=top;childLayout=stackLayout;horizontal=1;startSize=26;horizontalStack=0;resizeParent=1;resizeParentMax=0;resizeLast=0;collapsible=1;marginBottom=0;whiteSpace=wrap;html=1;" vertex="1" parent="1">
          <mxGeometry x="-1930" y="-50" width="250" height="320" as="geometry" />
        </mxCell>
        <mxCell id="hdaKIBXGjX3yEsH8_jmL-52" value="-type_map: dict[string, type]" style="text;strokeColor=none;fillColor=none;align=left;verticalAlign=top;spacingLeft=4;spacingRight=4;overflow=hidden;rotatable=0;points=[[0,0.5],[1,0.5]];portConstraint=eastwest;whiteSpace=wrap;html=1;" vertex="1" parent="hdaKIBXGjX3yEsH8_jmL-51">
          <mxGeometry y="26" width="250" height="26" as="geometry" />
        </mxCell>
        <mxCell id="hdaKIBXGjX3yEsH8_jmL-165" value="-db: DatabaseConnection" style="text;strokeColor=none;fillColor=none;align=left;verticalAlign=top;spacingLeft=4;spacingRight=4;overflow=hidden;rotatable=0;points=[[0,0.5],[1,0.5]];portConstraint=eastwest;whiteSpace=wrap;html=1;" vertex="1" parent="hdaKIBXGjX3yEsH8_jmL-51">
          <mxGeometry y="52" width="250" height="26" as="geometry" />
        </mxCell>
        <mxCell id="hdaKIBXGjX3yEsH8_jmL-167" value="-table_name: string" style="text;strokeColor=none;fillColor=none;align=left;verticalAlign=top;spacingLeft=4;spacingRight=4;overflow=hidden;rotatable=0;points=[[0,0.5],[1,0.5]];portConstraint=eastwest;whiteSpace=wrap;html=1;" vertex="1" parent="hdaKIBXGjX3yEsH8_jmL-51">
          <mxGeometry y="78" width="250" height="26" as="geometry" />
        </mxCell>
        <mxCell id="hdaKIBXGjX3yEsH8_jmL-166" value="-mode_class: T" style="text;strokeColor=none;fillColor=none;align=left;verticalAlign=top;spacingLeft=4;spacingRight=4;overflow=hidden;rotatable=0;points=[[0,0.5],[1,0.5]];portConstraint=eastwest;whiteSpace=wrap;html=1;" vertex="1" parent="hdaKIBXGjX3yEsH8_jmL-51">
          <mxGeometry y="104" width="250" height="26" as="geometry" />
        </mxCell>
        <mxCell id="hdaKIBXGjX3yEsH8_jmL-53" value="" style="line;strokeWidth=1;fillColor=none;align=left;verticalAlign=middle;spacingTop=-1;spacingLeft=3;spacingRight=3;rotatable=0;labelPosition=right;points=[];portConstraint=eastwest;strokeColor=inherit;" vertex="1" parent="hdaKIBXGjX3yEsH8_jmL-51">
          <mxGeometry y="130" width="250" height="8" as="geometry" />
        </mxCell>
        <mxCell id="hdaKIBXGjX3yEsH8_jmL-54" value="+__init__(DatabaseConnection, string, T)" style="text;strokeColor=none;fillColor=none;align=left;verticalAlign=top;spacingLeft=4;spacingRight=4;overflow=hidden;rotatable=0;points=[[0,0.5],[1,0.5]];portConstraint=eastwest;whiteSpace=wrap;html=1;" vertex="1" parent="hdaKIBXGjX3yEsH8_jmL-51">
          <mxGeometry y="138" width="250" height="26" as="geometry" />
        </mxCell>
        <mxCell id="hdaKIBXGjX3yEsH8_jmL-168" value="+create_table(T): void" style="text;strokeColor=none;fillColor=none;align=left;verticalAlign=top;spacingLeft=4;spacingRight=4;overflow=hidden;rotatable=0;points=[[0,0.5],[1,0.5]];portConstraint=eastwest;whiteSpace=wrap;html=1;" vertex="1" parent="hdaKIBXGjX3yEsH8_jmL-51">
          <mxGeometry y="164" width="250" height="26" as="geometry" />
        </mxCell>
        <mxCell id="hdaKIBXGjX3yEsH8_jmL-173" value="+add_to_db(item: T): T" style="text;strokeColor=none;fillColor=none;align=left;verticalAlign=top;spacingLeft=4;spacingRight=4;overflow=hidden;rotatable=0;points=[[0,0.5],[1,0.5]];portConstraint=eastwest;whiteSpace=wrap;html=1;" vertex="1" parent="hdaKIBXGjX3yEsH8_jmL-51">
          <mxGeometry y="190" width="250" height="26" as="geometry" />
        </mxCell>
        <mxCell id="hdaKIBXGjX3yEsH8_jmL-172" value="+get_by_id(id: int): T" style="text;strokeColor=none;fillColor=none;align=left;verticalAlign=top;spacingLeft=4;spacingRight=4;overflow=hidden;rotatable=0;points=[[0,0.5],[1,0.5]];portConstraint=eastwest;whiteSpace=wrap;html=1;" vertex="1" parent="hdaKIBXGjX3yEsH8_jmL-51">
          <mxGeometry y="216" width="250" height="26" as="geometry" />
        </mxCell>
        <mxCell id="hdaKIBXGjX3yEsH8_jmL-171" value="+get_count_from_table(): int" style="text;strokeColor=none;fillColor=none;align=left;verticalAlign=top;spacingLeft=4;spacingRight=4;overflow=hidden;rotatable=0;points=[[0,0.5],[1,0.5]];portConstraint=eastwest;whiteSpace=wrap;html=1;" vertex="1" parent="hdaKIBXGjX3yEsH8_jmL-51">
          <mxGeometry y="242" width="250" height="26" as="geometry" />
        </mxCell>
        <mxCell id="hdaKIBXGjX3yEsH8_jmL-170" value="+delete_record(id: int, date: datetime): T" style="text;strokeColor=none;fillColor=none;align=left;verticalAlign=top;spacingLeft=4;spacingRight=4;overflow=hidden;rotatable=0;points=[[0,0.5],[1,0.5]];portConstraint=eastwest;whiteSpace=wrap;html=1;" vertex="1" parent="hdaKIBXGjX3yEsH8_jmL-51">
          <mxGeometry y="268" width="250" height="26" as="geometry" />
        </mxCell>
        <mxCell id="hdaKIBXGjX3yEsH8_jmL-169" value="+complete_record(id: int, date: datetime): T" style="text;strokeColor=none;fillColor=none;align=left;verticalAlign=top;spacingLeft=4;spacingRight=4;overflow=hidden;rotatable=0;points=[[0,0.5],[1,0.5]];portConstraint=eastwest;whiteSpace=wrap;html=1;" vertex="1" parent="hdaKIBXGjX3yEsH8_jmL-51">
          <mxGeometry y="294" width="250" height="26" as="geometry" />
        </mxCell>
        <mxCell id="hdaKIBXGjX3yEsH8_jmL-55" value="BaseService&amp;lt;T: BaseModel&amp;gt;" style="swimlane;fontStyle=1;align=center;verticalAlign=top;childLayout=stackLayout;horizontal=1;startSize=26;horizontalStack=0;resizeParent=1;resizeParentMax=0;resizeLast=0;collapsible=1;marginBottom=0;whiteSpace=wrap;html=1;" vertex="1" parent="1">
          <mxGeometry x="-1770" y="420" width="270" height="294" as="geometry" />
        </mxCell>
        <mxCell id="hdaKIBXGjX3yEsH8_jmL-56" value="-repository: BaseRepository[T]" style="text;strokeColor=none;fillColor=none;align=left;verticalAlign=top;spacingLeft=4;spacingRight=4;overflow=hidden;rotatable=0;points=[[0,0.5],[1,0.5]];portConstraint=eastwest;whiteSpace=wrap;html=1;" vertex="1" parent="hdaKIBXGjX3yEsH8_jmL-55">
          <mxGeometry y="26" width="270" height="26" as="geometry" />
        </mxCell>
        <mxCell id="hdaKIBXGjX3yEsH8_jmL-151" value="-model_class: T" style="text;strokeColor=none;fillColor=none;align=left;verticalAlign=top;spacingLeft=4;spacingRight=4;overflow=hidden;rotatable=0;points=[[0,0.5],[1,0.5]];portConstraint=eastwest;whiteSpace=wrap;html=1;" vertex="1" parent="hdaKIBXGjX3yEsH8_jmL-55">
          <mxGeometry y="52" width="270" height="26" as="geometry" />
        </mxCell>
        <mxCell id="hdaKIBXGjX3yEsH8_jmL-57" value="" style="line;strokeWidth=1;fillColor=none;align=left;verticalAlign=middle;spacingTop=-1;spacingLeft=3;spacingRight=3;rotatable=0;labelPosition=right;points=[];portConstraint=eastwest;strokeColor=inherit;" vertex="1" parent="hdaKIBXGjX3yEsH8_jmL-55">
          <mxGeometry y="78" width="270" height="8" as="geometry" />
        </mxCell>
        <mxCell id="hdaKIBXGjX3yEsH8_jmL-58" value="+__init__(repository: BaseRepository[T])" style="text;strokeColor=none;fillColor=none;align=left;verticalAlign=top;spacingLeft=4;spacingRight=4;overflow=hidden;rotatable=0;points=[[0,0.5],[1,0.5]];portConstraint=eastwest;whiteSpace=wrap;html=1;" vertex="1" parent="hdaKIBXGjX3yEsH8_jmL-55">
          <mxGeometry y="86" width="270" height="26" as="geometry" />
        </mxCell>
        <mxCell id="hdaKIBXGjX3yEsH8_jmL-153" value="+get_by_id(id: int): T | null" style="text;strokeColor=none;fillColor=none;align=left;verticalAlign=top;spacingLeft=4;spacingRight=4;overflow=hidden;rotatable=0;points=[[0,0.5],[1,0.5]];portConstraint=eastwest;whiteSpace=wrap;html=1;" vertex="1" parent="hdaKIBXGjX3yEsH8_jmL-55">
          <mxGeometry y="112" width="270" height="26" as="geometry" />
        </mxCell>
        <mxCell id="hdaKIBXGjX3yEsH8_jmL-155" value="+get_all(): T[] | null" style="text;strokeColor=none;fillColor=none;align=left;verticalAlign=top;spacingLeft=4;spacingRight=4;overflow=hidden;rotatable=0;points=[[0,0.5],[1,0.5]];portConstraint=eastwest;whiteSpace=wrap;html=1;" vertex="1" parent="hdaKIBXGjX3yEsH8_jmL-55">
          <mxGeometry y="138" width="270" height="26" as="geometry" />
        </mxCell>
        <mxCell id="hdaKIBXGjX3yEsH8_jmL-158" value="+get_count(): int" style="text;strokeColor=none;fillColor=none;align=left;verticalAlign=top;spacingLeft=4;spacingRight=4;overflow=hidden;rotatable=0;points=[[0,0.5],[1,0.5]];portConstraint=eastwest;whiteSpace=wrap;html=1;" vertex="1" parent="hdaKIBXGjX3yEsH8_jmL-55">
          <mxGeometry y="164" width="270" height="26" as="geometry" />
        </mxCell>
        <mxCell id="hdaKIBXGjX3yEsH8_jmL-157" value="+filter_deleted(bool: bool, items: T[]): T[] | null" style="text;strokeColor=none;fillColor=none;align=left;verticalAlign=top;spacingLeft=4;spacingRight=4;overflow=hidden;rotatable=0;points=[[0,0.5],[1,0.5]];portConstraint=eastwest;whiteSpace=wrap;html=1;" vertex="1" parent="hdaKIBXGjX3yEsH8_jmL-55">
          <mxGeometry y="190" width="270" height="26" as="geometry" />
        </mxCell>
        <mxCell id="hdaKIBXGjX3yEsH8_jmL-156" value="+filter_complete(bool: bool, items: T[]: T[] | null" style="text;strokeColor=none;fillColor=none;align=left;verticalAlign=top;spacingLeft=4;spacingRight=4;overflow=hidden;rotatable=0;points=[[0,0.5],[1,0.5]];portConstraint=eastwest;whiteSpace=wrap;html=1;" vertex="1" parent="hdaKIBXGjX3yEsH8_jmL-55">
          <mxGeometry y="216" width="270" height="26" as="geometry" />
        </mxCell>
        <mxCell id="hdaKIBXGjX3yEsH8_jmL-154" value="+check_if_deleted(item: T): bool" style="text;strokeColor=none;fillColor=none;align=left;verticalAlign=top;spacingLeft=4;spacingRight=4;overflow=hidden;rotatable=0;points=[[0,0.5],[1,0.5]];portConstraint=eastwest;whiteSpace=wrap;html=1;" vertex="1" parent="hdaKIBXGjX3yEsH8_jmL-55">
          <mxGeometry y="242" width="270" height="26" as="geometry" />
        </mxCell>
        <mxCell id="hdaKIBXGjX3yEsH8_jmL-152" value="+check_if_completed(item: T): bool" style="text;strokeColor=none;fillColor=none;align=left;verticalAlign=top;spacingLeft=4;spacingRight=4;overflow=hidden;rotatable=0;points=[[0,0.5],[1,0.5]];portConstraint=eastwest;whiteSpace=wrap;html=1;" vertex="1" parent="hdaKIBXGjX3yEsH8_jmL-55">
          <mxGeometry y="268" width="270" height="26" as="geometry" />
        </mxCell>
        <mxCell id="hdaKIBXGjX3yEsH8_jmL-59" value="TicketInputValidationService" style="swimlane;fontStyle=1;align=center;verticalAlign=top;childLayout=stackLayout;horizontal=1;startSize=26;horizontalStack=0;resizeParent=1;resizeParentMax=0;resizeLast=0;collapsible=1;marginBottom=0;whiteSpace=wrap;html=1;" vertex="1" parent="1">
          <mxGeometry x="-1470" y="850" width="420" height="216" as="geometry" />
        </mxCell>
        <mxCell id="hdaKIBXGjX3yEsH8_jmL-60" value="-commands: dict[int, method()]" style="text;strokeColor=none;fillColor=none;align=left;verticalAlign=top;spacingLeft=4;spacingRight=4;overflow=hidden;rotatable=0;points=[[0,0.5],[1,0.5]];portConstraint=eastwest;whiteSpace=wrap;html=1;" vertex="1" parent="hdaKIBXGjX3yEsH8_jmL-59">
          <mxGeometry y="26" width="420" height="26" as="geometry" />
        </mxCell>
        <mxCell id="hdaKIBXGjX3yEsH8_jmL-61" value="" style="line;strokeWidth=1;fillColor=none;align=left;verticalAlign=middle;spacingTop=-1;spacingLeft=3;spacingRight=3;rotatable=0;labelPosition=right;points=[];portConstraint=eastwest;strokeColor=inherit;" vertex="1" parent="hdaKIBXGjX3yEsH8_jmL-59">
          <mxGeometry y="52" width="420" height="8" as="geometry" />
        </mxCell>
        <mxCell id="hdaKIBXGjX3yEsH8_jmL-62" value="+prompt_and_validate_priority(): int" style="text;strokeColor=none;fillColor=none;align=left;verticalAlign=top;spacingLeft=4;spacingRight=4;overflow=hidden;rotatable=0;points=[[0,0.5],[1,0.5]];portConstraint=eastwest;whiteSpace=wrap;html=1;" vertex="1" parent="hdaKIBXGjX3yEsH8_jmL-59">
          <mxGeometry y="60" width="420" height="26" as="geometry" />
        </mxCell>
        <mxCell id="hdaKIBXGjX3yEsH8_jmL-130" value="+prompt_and_validate_ticket_type(): TicketType" style="text;strokeColor=none;fillColor=none;align=left;verticalAlign=top;spacingLeft=4;spacingRight=4;overflow=hidden;rotatable=0;points=[[0,0.5],[1,0.5]];portConstraint=eastwest;whiteSpace=wrap;html=1;" vertex="1" parent="hdaKIBXGjX3yEsH8_jmL-59">
          <mxGeometry y="86" width="420" height="26" as="geometry" />
        </mxCell>
        <mxCell id="hdaKIBXGjX3yEsH8_jmL-132" value="+prompt_for_string_of_minimum_length(prompt: string, length: int): string" style="text;strokeColor=none;fillColor=none;align=left;verticalAlign=top;spacingLeft=4;spacingRight=4;overflow=hidden;rotatable=0;points=[[0,0.5],[1,0.5]];portConstraint=eastwest;whiteSpace=wrap;html=1;" vertex="1" parent="hdaKIBXGjX3yEsH8_jmL-59">
          <mxGeometry y="112" width="420" height="26" as="geometry" />
        </mxCell>
        <mxCell id="hdaKIBXGjX3yEsH8_jmL-133" value="+prompt_for_initial_estimate(): float" style="text;strokeColor=none;fillColor=none;align=left;verticalAlign=top;spacingLeft=4;spacingRight=4;overflow=hidden;rotatable=0;points=[[0,0.5],[1,0.5]];portConstraint=eastwest;whiteSpace=wrap;html=1;" vertex="1" parent="hdaKIBXGjX3yEsH8_jmL-59">
          <mxGeometry y="138" width="420" height="26" as="geometry" />
        </mxCell>
        <mxCell id="hdaKIBXGjX3yEsH8_jmL-131" value="+generate_validated_user_ticket_inputs(): ValidatedUserTicketInputs" style="text;strokeColor=none;fillColor=none;align=left;verticalAlign=top;spacingLeft=4;spacingRight=4;overflow=hidden;rotatable=0;points=[[0,0.5],[1,0.5]];portConstraint=eastwest;whiteSpace=wrap;html=1;" vertex="1" parent="hdaKIBXGjX3yEsH8_jmL-59">
          <mxGeometry y="164" width="420" height="26" as="geometry" />
        </mxCell>
        <mxCell id="hdaKIBXGjX3yEsH8_jmL-129" value="+call_chosen_update_function(choice: int): void" style="text;strokeColor=none;fillColor=none;align=left;verticalAlign=top;spacingLeft=4;spacingRight=4;overflow=hidden;rotatable=0;points=[[0,0.5],[1,0.5]];portConstraint=eastwest;whiteSpace=wrap;html=1;" vertex="1" parent="hdaKIBXGjX3yEsH8_jmL-59">
          <mxGeometry y="190" width="420" height="26" as="geometry" />
        </mxCell>
        <mxCell id="hdaKIBXGjX3yEsH8_jmL-67" style="edgeStyle=orthogonalEdgeStyle;rounded=0;orthogonalLoop=1;jettySize=auto;html=1;exitX=0.004;exitY=0.843;exitDx=0;exitDy=0;entryX=1;entryY=0.5;entryDx=0;entryDy=0;endArrow=diamondThin;endFill=0;jumpSize=13;endSize=14;exitPerimeter=0;" edge="1" parent="1" source="hdaKIBXGjX3yEsH8_jmL-11" target="hdaKIBXGjX3yEsH8_jmL-48">
          <mxGeometry relative="1" as="geometry">
            <mxPoint x="110" y="103" as="sourcePoint" />
            <mxPoint x="131" y="188" as="targetPoint" />
          </mxGeometry>
        </mxCell>
        <mxCell id="hdaKIBXGjX3yEsH8_jmL-68" style="edgeStyle=orthogonalEdgeStyle;rounded=0;orthogonalLoop=1;jettySize=auto;html=1;endArrow=diamondThin;endFill=1;endSize=13;entryX=0.426;entryY=-0.005;entryDx=0;entryDy=0;entryPerimeter=0;" edge="1" parent="1" target="hdaKIBXGjX3yEsH8_jmL-43">
          <mxGeometry relative="1" as="geometry">
            <mxPoint x="-1050" y="240" as="sourcePoint" />
            <mxPoint x="-1055" y="340" as="targetPoint" />
          </mxGeometry>
        </mxCell>
        <mxCell id="hdaKIBXGjX3yEsH8_jmL-69" style="edgeStyle=orthogonalEdgeStyle;rounded=0;orthogonalLoop=1;jettySize=auto;html=1;endArrow=diamondThin;endFill=1;endSize=13;exitX=1;exitY=0.5;exitDx=0;exitDy=0;entryX=0.07;entryY=-0.006;entryDx=0;entryDy=0;entryPerimeter=0;" edge="1" parent="1" source="hdaKIBXGjX3yEsH8_jmL-44" target="hdaKIBXGjX3yEsH8_jmL-2">
          <mxGeometry relative="1" as="geometry">
            <mxPoint x="-190" y="270" as="sourcePoint" />
            <mxPoint x="-720" y="540" as="targetPoint" />
            <Array as="points">
              <mxPoint x="-770" y="510" />
              <mxPoint x="-670" y="510" />
              <mxPoint x="-670" y="577" />
            </Array>
          </mxGeometry>
        </mxCell>
        <mxCell id="hdaKIBXGjX3yEsH8_jmL-70" style="edgeStyle=orthogonalEdgeStyle;rounded=0;orthogonalLoop=1;jettySize=auto;html=1;entryX=0;entryY=0.5;entryDx=0;entryDy=0;exitX=1;exitY=0.5;exitDx=0;exitDy=0;endArrow=block;endFill=0;endSize=12;" edge="1" parent="1" source="hdaKIBXGjX3yEsH8_jmL-56" target="hdaKIBXGjX3yEsH8_jmL-44">
          <mxGeometry relative="1" as="geometry">
            <mxPoint x="-923" y="200" as="sourcePoint" />
            <mxPoint x="-970" y="298" as="targetPoint" />
          </mxGeometry>
        </mxCell>
        <mxCell id="hdaKIBXGjX3yEsH8_jmL-71" style="edgeStyle=orthogonalEdgeStyle;rounded=0;orthogonalLoop=1;jettySize=auto;html=1;entryX=-0.005;entryY=0.825;entryDx=0;entryDy=0;exitX=1.01;exitY=0.121;exitDx=0;exitDy=0;endArrow=block;endFill=0;endSize=12;entryPerimeter=0;exitPerimeter=0;" edge="1" parent="1" source="hdaKIBXGjX3yEsH8_jmL-54" target="hdaKIBXGjX3yEsH8_jmL-48">
          <mxGeometry relative="1" as="geometry">
            <mxPoint x="-970" y="62.5" as="sourcePoint" />
            <mxPoint x="-830" y="62.5" as="targetPoint" />
          </mxGeometry>
        </mxCell>
        <mxCell id="hdaKIBXGjX3yEsH8_jmL-94" style="edgeStyle=orthogonalEdgeStyle;rounded=0;orthogonalLoop=1;jettySize=auto;html=1;exitX=0.237;exitY=0.971;exitDx=0;exitDy=0;endArrow=diamondThin;endFill=1;jumpSize=13;endSize=14;exitPerimeter=0;entryX=0.4;entryY=0;entryDx=0;entryDy=0;entryPerimeter=0;" edge="1" parent="1" source="hdaKIBXGjX3yEsH8_jmL-79" target="hdaKIBXGjX3yEsH8_jmL-18">
          <mxGeometry relative="1" as="geometry">
            <mxPoint x="194" y="230" as="sourcePoint" />
            <mxPoint x="159" y="284" as="targetPoint" />
            <Array as="points">
              <mxPoint x="88" y="149" />
              <mxPoint x="88" y="210" />
              <mxPoint x="90" y="210" />
              <mxPoint x="90" y="230" />
              <mxPoint x="159" y="230" />
              <mxPoint x="159" y="290" />
            </Array>
          </mxGeometry>
        </mxCell>
        <mxCell id="hdaKIBXGjX3yEsH8_jmL-95" style="edgeStyle=orthogonalEdgeStyle;rounded=0;orthogonalLoop=1;jettySize=auto;html=1;exitX=0;exitY=0.5;exitDx=0;exitDy=0;entryX=1.016;entryY=0.909;entryDx=0;entryDy=0;endArrow=diamondThin;endFill=1;jumpSize=13;endSize=14;entryPerimeter=0;" edge="1" parent="1" source="hdaKIBXGjX3yEsH8_jmL-21" target="hdaKIBXGjX3yEsH8_jmL-5">
          <mxGeometry relative="1" as="geometry">
            <mxPoint x="118" y="440" as="sourcePoint" />
            <mxPoint y="440" as="targetPoint" />
          </mxGeometry>
        </mxCell>
        <mxCell id="hdaKIBXGjX3yEsH8_jmL-96" style="edgeStyle=orthogonalEdgeStyle;rounded=0;orthogonalLoop=1;jettySize=auto;html=1;exitX=1;exitY=0.5;exitDx=0;exitDy=0;endArrow=diamondThin;endFill=1;jumpSize=13;endSize=14;entryX=0.568;entryY=1.076;entryDx=0;entryDy=0;entryPerimeter=0;" edge="1" parent="1" source="hdaKIBXGjX3yEsH8_jmL-130" target="hdaKIBXGjX3yEsH8_jmL-141">
          <mxGeometry relative="1" as="geometry">
            <mxPoint x="-1020" y="943.6899999999996" as="sourcePoint" />
            <mxPoint x="-990.1199999999999" y="760.0020000000004" as="targetPoint" />
            <Array as="points">
              <mxPoint x="-1050" y="944" />
              <mxPoint x="-1000" y="944" />
              <mxPoint x="-1000" y="764" />
              <mxPoint x="-990" y="764" />
              <mxPoint x="-990" y="722" />
            </Array>
          </mxGeometry>
        </mxCell>
        <mxCell id="hdaKIBXGjX3yEsH8_jmL-159" style="edgeStyle=orthogonalEdgeStyle;rounded=0;orthogonalLoop=1;jettySize=auto;html=1;exitX=0.827;exitY=0.992;exitDx=0;exitDy=0;entryX=0.437;entryY=-0.015;entryDx=0;entryDy=0;endArrow=diamondThin;endFill=1;endSize=13;exitPerimeter=0;entryPerimeter=0;" edge="1" parent="1" source="hdaKIBXGjX3yEsH8_jmL-169" target="hdaKIBXGjX3yEsH8_jmL-55">
          <mxGeometry relative="1" as="geometry">
            <mxPoint x="-1505" y="191" as="sourcePoint" />
            <mxPoint x="-1515" y="370" as="targetPoint" />
          </mxGeometry>
        </mxCell>
      </root>
    </mxGraphModel>
  </diagram>
</mxfile>
